<svg width="1005" height="452" viewBox="0 0 1005 452" fill="none" xmlns="http://www.w3.org/2000/svg">
<rect x="1" y="1" width="33" height="32" transform="matrix(4.37114e-08 1 1 -4.37114e-08 704 -4.37114e-08)" stroke="white" stroke-width="2"/>
<rect x="1" y="1" width="33" height="32" transform="matrix(4.37114e-08 1 1 -4.37114e-08 742 -4.37114e-08)" stroke="white" stroke-width="2"/>
<rect x="1" y="1" width="33" height="32" transform="matrix(4.37114e-08 1 1 -4.37114e-08 780 -4.37114e-08)" fill="#00E73A" stroke="white" stroke-width="2"/>
<rect x="1" y="1" width="33" height="33" transform="matrix(4.37114e-08 1 1 -4.37114e-08 818 -4.37114e-08)" fill="#00E73A" stroke="white" stroke-width="2"/>
<rect x="1" y="1" width="33" height="32" transform="matrix(4.37114e-08 1 1 -4.37114e-08 704 38)" stroke="white" stroke-width="2"/>
<rect x="1" y="1" width="33" height="32" transform="matrix(4.37114e-08 1 1 -4.37114e-08 742 38)" fill="#00E73A" stroke="white" stroke-width="2"/>
<rect x="1" y="1" width="33" height="32" transform="matrix(4.37114e-08 1 1 -4.37114e-08 780 38)" stroke="white" stroke-width="2"/>
<rect x="1" y="1" width="33" height="33" transform="matrix(4.37114e-08 1 1 -4.37114e-08 818 38)" stroke="white" stroke-width="2"/>
<rect x="1" y="1" width="33" height="33" transform="matrix(4.37114e-08 1 1 -4.37114e-08 856 38)" fill="#00E73A" stroke="white" stroke-width="2"/>
<rect x="1" y="1" width="33" height="33" transform="matrix(4.37114e-08 1 1 -4.37114e-08 894 38)" stroke="white" stroke-width="2"/>
<rect x="1" y="1" width="33" height="32" transform="matrix(4.37114e-08 1 1 -4.37114e-08 704 76)" fill="#00E73A" stroke="white" stroke-width="2"/>
<rect x="1" y="1" width="33" height="32" transform="matrix(4.37114e-08 1 1 -4.37114e-08 742 76)" stroke="white" stroke-width="2"/>
<rect x="1" y="1" width="33" height="32" transform="matrix(4.37114e-08 1 1 -4.37114e-08 780 76)" stroke="white" stroke-width="2"/>
<rect x="1" y="1" width="33" height="33" transform="matrix(4.37114e-08 1 1 -4.37114e-08 818 76)" stroke="white" stroke-width="2"/>
<rect x="1" y="1" width="33" height="33" transform="matrix(4.37114e-08 1 1 -4.37114e-08 856 76)" stroke="white" stroke-width="2"/>
<rect x="1" y="1" width="33" height="33" transform="matrix(4.37114e-08 1 1 -4.37114e-08 894 76)" fill="#00E73A" stroke="white" stroke-width="2"/>
<rect x="1" y="1" width="33" height="33" transform="matrix(4.37114e-08 1 1 -4.37114e-08 932 76)" stroke="white" stroke-width="2"/>
<rect x="1" y="1" width="33" height="32" transform="matrix(4.37114e-08 1 1 -4.37114e-08 971 76)" stroke="white" stroke-width="2"/>
<rect x="1" y="1" width="32" height="32" transform="matrix(4.37114e-08 1 1 -4.37114e-08 704 114)" fill="#00E73A" stroke="white" stroke-width="2"/>
<rect x="1" y="1" width="32" height="32" transform="matrix(4.37114e-08 1 1 -4.37114e-08 742 114)" stroke="white" stroke-width="2"/>
<rect x="1" y="1" width="32" height="32" transform="matrix(4.37114e-08 1 1 -4.37114e-08 780 114)" stroke="white" stroke-width="2"/>
<rect x="1" y="1" width="32" height="33" transform="matrix(4.37114e-08 1 1 -4.37114e-08 818 114)" stroke="white" stroke-width="2"/>
<rect x="1" y="1" width="32" height="33" transform="matrix(4.37114e-08 1 1 -4.37114e-08 856 114)" stroke="white" stroke-width="2"/>
<rect x="1" y="1" width="32" height="33" transform="matrix(4.37114e-08 1 1 -4.37114e-08 894 114)" fill="#00E73A" stroke="white" stroke-width="2"/>
<rect x="1" y="1" width="32" height="33" transform="matrix(4.37114e-08 1 1 -4.37114e-08 932 114)" stroke="white" stroke-width="2"/>
<rect x="1" y="1" width="32" height="32" transform="matrix(4.37114e-08 1 1 -4.37114e-08 971 114)" stroke="white" stroke-width="2"/>
<rect x="1" y="1" width="32" height="32" transform="matrix(4.37114e-08 1 1 -4.37114e-08 704 152)" fill="#00E73A" stroke="white" stroke-width="2"/>
<rect x="1" y="1" width="32" height="32" transform="matrix(4.37114e-08 1 1 -4.37114e-08 742 152)" stroke="white" stroke-width="2"/>
<rect x="780.943" y="152.914" width="32.4585" height="32.4585" fill="#AEAEB2" stroke="white" stroke-width="2"/>
<path d="M797.172 168.547L805.212 160.507L805.808 161.103L798.475 168.437L797.768 169.144L805.808 177.184L805.212 177.78L797.172 169.74L796.465 170.447L789.131 177.78L788.536 177.184L796.576 169.144L788.535 161.103L789.131 160.506L797.172 168.547Z" fill="white" stroke="white" stroke-width="2"/>
<rect x="1" y="1" width="32" height="33" transform="matrix(4.37114e-08 1 1 -4.37114e-08 818 152)" stroke="white" stroke-width="2"/>
<rect x="1" y="1" width="32" height="33" transform="matrix(4.37114e-08 1 1 -4.37114e-08 856 152)" stroke="white" stroke-width="2"/>
<rect x="1" y="1" width="32" height="33" transform="matrix(4.37114e-08 1 1 -4.37114e-08 894 152)" fill="#00E73A" stroke="white" stroke-width="2"/>
<rect x="1" y="1" width="32" height="33" transform="matrix(4.37114e-08 1 1 -4.37114e-08 932 152)" stroke="white" stroke-width="2"/>
<rect x="1" y="1" width="32" height="32" transform="matrix(4.37114e-08 1 1 -4.37114e-08 971 152)" stroke="white" stroke-width="2"/>
<rect x="1" y="1" width="32" height="32" transform="matrix(4.37114e-08 1 1 -4.37114e-08 704 190)" fill="#00E73A" stroke="white" stroke-width="2"/>
<rect x="1" y="1" width="32" height="32" transform="matrix(4.37114e-08 1 1 -4.37114e-08 742 190)" stroke="white" stroke-width="2"/>
<rect x="1" y="1" width="32" height="32" transform="matrix(4.37114e-08 1 1 -4.37114e-08 780 190)" stroke="white" stroke-width="2"/>
<rect x="1" y="1" width="32" height="33" transform="matrix(4.37114e-08 1 1 -4.37114e-08 818 190)" stroke="white" stroke-width="2"/>
<rect x="1" y="1" width="32" height="33" transform="matrix(4.37114e-08 1 1 -4.37114e-08 856 190)" stroke="white" stroke-width="2"/>
<rect x="1" y="1" width="32" height="33" transform="matrix(4.37114e-08 1 1 -4.37114e-08 894 190)" fill="#00E73A" stroke="white" stroke-width="2"/>
<rect x="1" y="1" width="32" height="33" transform="matrix(4.37114e-08 1 1 -4.37114e-08 932 190)" stroke="white" stroke-width="2"/>
<rect x="1" y="1" width="32" height="32" transform="matrix(4.37114e-08 1 1 -4.37114e-08 971 190)" stroke="white" stroke-width="2"/>
<rect x="1" y="1" width="32" height="32" transform="matrix(4.37114e-08 1 1 -4.37114e-08 704 228)" fill="#00E73A" stroke="white" stroke-width="2"/>
<rect x="1" y="1" width="32" height="32" transform="matrix(4.37114e-08 1 1 -4.37114e-08 742 228)" stroke="white" stroke-width="2"/>
<rect x="1" y="1" width="32" height="32" transform="matrix(4.37114e-08 1 1 -4.37114e-08 780 228)" stroke="white" stroke-width="2"/>
<rect x="1" y="1" width="32" height="33" transform="matrix(4.37114e-08 1 1 -4.37114e-08 818 228)" stroke="white" stroke-width="2"/>
<rect x="1" y="1" width="32" height="33" transform="matrix(4.37114e-08 1 1 -4.37114e-08 856 228)" stroke="white" stroke-width="2"/>
<rect x="1" y="1" width="32" height="33" transform="matrix(4.37114e-08 1 1 -4.37114e-08 894 228)" fill="#00E73A" stroke="white" stroke-width="2"/>
<rect x="1" y="1" width="32" height="33" transform="matrix(4.37114e-08 1 1 -4.37114e-08 932 228)" stroke="white" stroke-width="2"/>
<rect x="1" y="1" width="32" height="32" transform="matrix(4.37114e-08 1 1 -4.37114e-08 971 228)" stroke="white" stroke-width="2"/>
<rect x="1" y="1" width="32" height="32" transform="matrix(4.37114e-08 1 1 -4.37114e-08 704 266)" fill="#00E73A" stroke="white" stroke-width="2"/>
<rect x="1" y="1" width="32" height="32" transform="matrix(4.37114e-08 1 1 -4.37114e-08 742 266)" stroke="white" stroke-width="2"/>
<rect x="1" y="1" width="32" height="32" transform="matrix(4.37114e-08 1 1 -4.37114e-08 780 266)" stroke="white" stroke-width="2"/>
<rect x="1" y="1" width="32" height="33" transform="matrix(4.37114e-08 1 1 -4.37114e-08 818 266)" stroke="white" stroke-width="2"/>
<rect x="1" y="1" width="32" height="33" transform="matrix(4.37114e-08 1 1 -4.37114e-08 856 266)" stroke="white" stroke-width="2"/>
<rect x="1" y="1" width="32" height="33" transform="matrix(4.37114e-08 1 1 -4.37114e-08 894 266)" fill="#00E73A" stroke="white" stroke-width="2"/>
<rect x="1" y="1" width="32" height="33" transform="matrix(4.37114e-08 1 1 -4.37114e-08 932 266)" stroke="white" stroke-width="2"/>
<rect x="1" y="1" width="32" height="32" transform="matrix(4.37114e-08 1 1 -4.37114e-08 971 266)" stroke="white" stroke-width="2"/>
<rect x="1" y="1" width="32" height="32" transform="matrix(4.37114e-08 1 1 -4.37114e-08 704 304)" stroke="white" stroke-width="2"/>
<rect x="1" y="1" width="32" height="32" transform="matrix(4.37114e-08 1 1 -4.37114e-08 742 304)" fill="#00E73A" stroke="white" stroke-width="2"/>
<rect x="1" y="1" width="32" height="32" transform="matrix(4.37114e-08 1 1 -4.37114e-08 780 304)" stroke="white" stroke-width="2"/>
<rect x="1" y="1" width="32" height="33" transform="matrix(4.37114e-08 1 1 -4.37114e-08 818 304)" stroke="white" stroke-width="2"/>
<rect x="1" y="1" width="32" height="33" transform="matrix(4.37114e-08 1 1 -4.37114e-08 856 304)" fill="#00E73A" stroke="white" stroke-width="2"/>
<rect x="1" y="1" width="32" height="33" transform="matrix(4.37114e-08 1 1 -4.37114e-08 894 304)" stroke="white" stroke-width="2"/>
<rect x="933.422" y="304.532" width="32.4585" height="32.4585" fill="#AEAEB2" stroke="white" stroke-width="2"/>
<path d="M949.651 320.165L957.691 312.125L958.287 312.72L950.954 320.054L950.247 320.761L958.287 328.802L957.691 329.397L949.651 321.357L948.944 322.064L941.61 329.397L941.015 328.802L949.055 320.761L941.014 312.72L941.61 312.124L949.651 320.165Z" fill="white" stroke="white" stroke-width="2"/>
<rect x="971.542" y="304.532" width="32.4585" height="32.4585" fill="#AEAEB2" stroke="white" stroke-width="2"/>
<path d="M987.771 320.165L995.811 312.125L996.407 312.72L989.074 320.054L988.367 320.761L996.407 328.802L995.811 329.397L987.771 321.357L987.064 322.064L979.73 329.397L979.134 328.802L987.174 320.761L979.133 312.72L979.73 312.124L987.771 320.165Z" fill="white" stroke="white" stroke-width="2"/>
<rect x="1" y="1" width="33" height="32" transform="matrix(4.37114e-08 1 1 -4.37114e-08 704 341)" stroke="white" stroke-width="2"/>
<rect x="1" y="1" width="33" height="32" transform="matrix(4.37114e-08 1 1 -4.37114e-08 742 341)" stroke="white" stroke-width="2"/>
<rect x="1" y="1" width="33" height="32" transform="matrix(4.37114e-08 1 1 -4.37114e-08 780 341)" fill="#00E73A" stroke="white" stroke-width="2"/>
<rect x="1" y="1" width="33" height="33" transform="matrix(4.37114e-08 1 1 -4.37114e-08 818 341)" fill="#00E73A" stroke="white" stroke-width="2"/>
<rect x="857.182" y="342.436" width="32.4585" height="32.4585" fill="#AEAEB2" stroke="white" stroke-width="2"/>
<path d="M873.412 358.069L881.452 350.029L882.047 350.625L874.714 357.959L874.007 358.666L882.047 366.706L881.452 367.302L873.412 359.261L872.705 359.969L865.371 367.302L864.775 366.706L872.815 358.666L864.774 350.625L865.371 350.028L873.412 358.069Z" fill="white" stroke="white" stroke-width="2"/>
<rect x="1" y="1" width="33" height="33" transform="matrix(4.37114e-08 1 1 -4.37114e-08 894 341)" stroke="white" stroke-width="2"/>
<rect x="1" y="1" width="33" height="33" transform="matrix(4.37114e-08 1 1 -4.37114e-08 932 341)" stroke="white" stroke-width="2"/>
<rect x="971.542" y="342.436" width="32.4585" height="32.4585" fill="#AEAEB2" stroke="white" stroke-width="2"/>
<path d="M987.771 358.069L995.811 350.029L996.407 350.625L989.074 357.959L988.367 358.666L996.407 366.706L995.811 367.302L987.771 359.261L987.064 359.969L979.73 367.302L979.134 366.706L987.174 358.666L979.133 350.625L979.73 350.028L987.771 358.069Z" fill="white" stroke="white" stroke-width="2"/>
<rect x="1" y="1" width="33" height="32" transform="matrix(4.37114e-08 1 1 -4.37114e-08 704 379)" stroke="white" stroke-width="2"/>
<rect x="1" y="1" width="33" height="32" transform="matrix(4.37114e-08 1 1 -4.37114e-08 742 379)" stroke="white" stroke-width="2"/>
<rect x="1" y="1" width="33" height="32" transform="matrix(4.37114e-08 1 1 -4.37114e-08 780 379)" stroke="white" stroke-width="2"/>
<rect x="1" y="1" width="33" height="33" transform="matrix(4.37114e-08 1 1 -4.37114e-08 818 379)" stroke="white" stroke-width="2"/>
<rect x="1" y="1" width="33" height="33" transform="matrix(4.37114e-08 1 1 -4.37114e-08 856 379)" stroke="white" stroke-width="2"/>
<rect x="1" y="1" width="33" height="33" transform="matrix(4.37114e-08 1 1 -4.37114e-08 894 379)" stroke="white" stroke-width="2"/>
<rect x="1" y="1" width="33" height="33" transform="matrix(4.37114e-08 1 1 -4.37114e-08 932 379)" stroke="white" stroke-width="2"/>
<rect x="1" y="1" width="33" height="32" transform="matrix(4.37114e-08 1 1 -4.37114e-08 971 379)" stroke="white" stroke-width="2"/>
<rect x="704.704" y="418.245" width="32.4585" height="32.4585" fill="#AEAEB2" stroke="white" stroke-width="2"/>
<path d="M720.933 433.877L728.973 425.837L729.568 426.433L722.235 433.767L721.528 434.474L729.568 442.514L728.973 443.11L720.933 435.07L720.226 435.777L712.892 443.11L712.296 442.514L720.336 434.474L712.295 426.433L712.892 425.836L720.933 433.877Z" fill="white" stroke="white" stroke-width="2"/>
<rect x="742.823" y="418.245" width="32.4585" height="32.4585" fill="#AEAEB2" stroke="white" stroke-width="2"/>
<path d="M759.053 433.877L767.093 425.837L767.688 426.433L760.355 433.767L759.648 434.474L767.688 442.514L767.093 443.11L759.053 435.07L758.346 435.777L751.012 443.11L750.416 442.514L758.456 434.474L750.415 426.433L751.012 425.836L759.053 433.877Z" fill="white" stroke="white" stroke-width="2"/>
<rect x="780.943" y="418.245" width="32.4585" height="32.4585" fill="#AEAEB2" stroke="white" stroke-width="2"/>
<path d="M797.172 433.877L805.212 425.837L805.808 426.433L798.475 433.767L797.768 434.474L805.808 442.514L805.212 443.11L797.172 435.07L796.465 435.777L789.131 443.11L788.536 442.514L796.576 434.474L788.535 426.433L789.131 425.836L797.172 433.877Z" fill="white" stroke="white" stroke-width="2"/>
<rect x="819.062" y="418.245" width="32.4585" height="32.4585" fill="#AEAEB2" stroke="white" stroke-width="2"/>
<path d="M835.292 433.877L843.332 425.837L843.928 426.433L836.595 433.767L835.888 434.474L843.928 442.514L843.332 443.11L835.292 435.07L834.585 435.777L827.251 443.11L826.655 442.514L834.695 434.474L826.654 426.433L827.251 425.836L835.292 433.877Z" fill="white" stroke="white" stroke-width="2"/>
<rect x="857.182" y="418.245" width="32.4585" height="32.4585" fill="#AEAEB2" stroke="white" stroke-width="2"/>
<path d="M873.412 433.877L881.452 425.837L882.047 426.433L874.714 433.767L874.007 434.474L882.047 442.514L881.452 443.11L873.412 435.07L872.705 435.777L865.371 443.11L864.775 442.514L872.815 434.474L864.774 426.433L865.371 425.836L873.412 433.877Z" fill="white" stroke="white" stroke-width="2"/>
<rect x="1" y="1" width="33" height="33" transform="matrix(4.37114e-08 1 1 -4.37114e-08 894 417)" stroke="white" stroke-width="2"/>
<rect x="1" y="1" width="33" height="33" transform="matrix(4.37114e-08 1 1 -4.37114e-08 932 417)" stroke="white" stroke-width="2"/>
<rect x="1" y="1" width="33" height="32" transform="matrix(4.37114e-08 1 1 -4.37114e-08 971 417)" stroke="white" stroke-width="2"/>
<rect x="386" y="1" width="33" height="33" transform="rotate(90 386 1)" stroke="white" stroke-width="2"/>
<rect x="424" y="1" width="33" height="33" transform="rotate(90 424 1)" stroke="white" stroke-width="2"/>
<rect x="461" y="1" width="33" height="32" transform="rotate(90 461 1)" stroke="white" stroke-width="2"/>
<rect x="499" y="1" width="33" height="32" transform="rotate(90 499 1)" fill="#00E73A" stroke="white" stroke-width="2"/>
<rect x="537" y="1" width="33" height="32" transform="rotate(90 537 1)" fill="#00E73A" stroke="white" stroke-width="2"/>
<rect x="575" y="1" width="33" height="32" transform="rotate(90 575 1)" stroke="white" stroke-width="2"/>
<rect x="613" y="1" width="33" height="32" transform="rotate(90 613 1)" stroke="white" stroke-width="2"/>
<rect x="651" y="1" width="33" height="32" transform="rotate(90 651 1)" stroke="white" stroke-width="2"/>
<rect x="386" y="39" width="33" height="33" transform="rotate(90 386 39)" stroke="white" stroke-width="2"/>
<rect x="424" y="39" width="33" height="33" transform="rotate(90 424 39)" stroke="white" stroke-width="2"/>
<rect x="461" y="39" width="33" height="32" transform="rotate(90 461 39)" fill="#00E73A" stroke="white" stroke-width="2"/>
<rect x="499" y="39" width="33" height="32" transform="rotate(90 499 39)" stroke="white" stroke-width="2"/>
<rect x="537" y="39" width="33" height="32" transform="rotate(90 537 39)" stroke="white" stroke-width="2"/>
<rect x="575" y="39" width="33" height="32" transform="rotate(90 575 39)" fill="#00E73A" stroke="white" stroke-width="2"/>
<rect x="613" y="39" width="33" height="32" transform="rotate(90 613 39)" stroke="white" stroke-width="2"/>
<rect x="651" y="39" width="33" height="32" transform="rotate(90 651 39)" stroke="white" stroke-width="2"/>
<rect x="353.227" y="77.1055" width="32.4585" height="32.4585" fill="#AEAEB2" stroke="white" stroke-width="2"/>
<path d="M369.456 92.7385L377.496 84.6985L378.092 85.2942L370.759 92.6282L370.052 93.3352L378.092 101.375L377.496 101.971L369.456 93.9309L368.749 94.6379L361.415 101.971L360.819 101.375L368.859 93.3352L360.818 85.2942L361.415 84.6975L369.456 92.7385Z" fill="white" stroke="white" stroke-width="2"/>
<rect x="424" y="77" width="33" height="33" transform="rotate(90 424 77)" fill="#00E73A" stroke="white" stroke-width="2"/>
<rect x="429.036" y="77.1055" width="32.4585" height="32.4585" fill="#AEAEB2" stroke="white" stroke-width="2"/>
<path d="M445.265 92.7385L453.305 84.6985L453.9 85.2942L446.567 92.6282L445.86 93.3352L453.9 101.375L453.305 101.971L445.265 93.9309L444.558 94.6379L437.224 101.971L436.628 101.375L444.668 93.3352L436.627 85.2942L437.224 84.6975L445.265 92.7385Z" fill="white" stroke="white" stroke-width="2"/>
<rect x="499" y="77" width="33" height="32" transform="rotate(90 499 77)" stroke="white" stroke-width="2"/>
<rect x="537" y="77" width="33" height="32" transform="rotate(90 537 77)" stroke="white" stroke-width="2"/>
<rect x="575" y="77" width="33" height="32" transform="rotate(90 575 77)" stroke="white" stroke-width="2"/>
<rect x="613" y="77" width="33" height="32" transform="rotate(90 613 77)" fill="#00E73A" stroke="white" stroke-width="2"/>
<rect x="651" y="77" width="33" height="32" transform="rotate(90 651 77)" stroke="white" stroke-width="2"/>
<rect x="386" y="115" width="32" height="33" transform="rotate(90 386 115)" stroke="white" stroke-width="2"/>
<rect x="424" y="115" width="32" height="33" transform="rotate(90 424 115)" fill="#00E73A" stroke="white" stroke-width="2"/>
<rect x="461" y="115" width="32" height="32" transform="rotate(90 461 115)" stroke="white" stroke-width="2"/>
<rect x="499" y="115" width="32" height="32" transform="rotate(90 499 115)" stroke="white" stroke-width="2"/>
<rect x="537" y="115" width="32" height="32" transform="rotate(90 537 115)" stroke="white" stroke-width="2"/>
<rect x="575" y="115" width="32" height="32" transform="rotate(90 575 115)" stroke="white" stroke-width="2"/>
<rect x="613" y="115" width="32" height="32" transform="rotate(90 613 115)" fill="#00E73A" stroke="white" stroke-width="2"/>
<rect x="651" y="115" width="32" height="32" transform="rotate(90 651 115)" stroke="white" stroke-width="2"/>
<rect x="386" y="153" width="32" height="33" transform="rotate(90 386 153)" stroke="white" stroke-width="2"/>
<rect x="424" y="153" width="32" height="33" transform="rotate(90 424 153)" fill="#00E73A" stroke="white" stroke-width="2"/>
<rect x="461" y="153" width="32" height="32" transform="rotate(90 461 153)" stroke="white" stroke-width="2"/>
<rect x="499" y="153" width="32" height="32" transform="rotate(90 499 153)" stroke="white" stroke-width="2"/>
<rect x="537" y="153" width="32" height="32" transform="rotate(90 537 153)" stroke="white" stroke-width="2"/>
<rect x="575" y="153" width="32" height="32" transform="rotate(90 575 153)" stroke="white" stroke-width="2"/>
<rect x="613" y="153" width="32" height="32" transform="rotate(90 613 153)" fill="#00E73A" stroke="white" stroke-width="2"/>
<rect x="651" y="153" width="32" height="32" transform="rotate(90 651 153)" stroke="white" stroke-width="2"/>
<rect x="386" y="191" width="32" height="33" transform="rotate(90 386 191)" stroke="white" stroke-width="2"/>
<rect x="424" y="191" width="32" height="33" transform="rotate(90 424 191)" fill="#00E73A" stroke="white" stroke-width="2"/>
<rect x="461" y="191" width="32" height="32" transform="rotate(90 461 191)" stroke="white" stroke-width="2"/>
<rect x="499" y="191" width="32" height="32" transform="rotate(90 499 191)" stroke="white" stroke-width="2"/>
<rect x="537" y="191" width="32" height="32" transform="rotate(90 537 191)" stroke="white" stroke-width="2"/>
<rect x="575" y="191" width="32" height="32" transform="rotate(90 575 191)" stroke="white" stroke-width="2"/>
<rect x="613" y="191" width="32" height="32" transform="rotate(90 613 191)" fill="#00E73A" stroke="white" stroke-width="2"/>
<rect x="651" y="191" width="32" height="32" transform="rotate(90 651 191)" stroke="white" stroke-width="2"/>
<rect x="386" y="229" width="32" height="33" transform="rotate(90 386 229)" stroke="white" stroke-width="2"/>
<rect x="424" y="229" width="32" height="33" transform="rotate(90 424 229)" fill="#00E73A" stroke="white" stroke-width="2"/>
<rect x="461" y="229" width="32" height="32" transform="rotate(90 461 229)" stroke="white" stroke-width="2"/>
<rect x="499" y="229" width="32" height="32" transform="rotate(90 499 229)" stroke="white" stroke-width="2"/>
<rect x="537" y="229" width="32" height="32" transform="rotate(90 537 229)" stroke="white" stroke-width="2"/>
<rect x="575" y="229" width="32" height="32" transform="rotate(90 575 229)" stroke="white" stroke-width="2"/>
<rect x="613" y="229" width="32" height="32" transform="rotate(90 613 229)" fill="#00E73A" stroke="white" stroke-width="2"/>
<rect x="651" y="229" width="32" height="32" transform="rotate(90 651 229)" stroke="white" stroke-width="2"/>
<rect x="386" y="267" width="32" height="33" transform="rotate(90 386 267)" stroke="white" stroke-width="2"/>
<rect x="424" y="267" width="32" height="33" transform="rotate(90 424 267)" fill="#00E73A" stroke="white" stroke-width="2"/>
<rect x="461" y="267" width="32" height="32" transform="rotate(90 461 267)" stroke="white" stroke-width="2"/>
<rect x="466.94" y="266.627" width="32.4585" height="32.4585" fill="#AEAEB2" stroke="white" stroke-width="2"/>
<path d="M483.169 282.26L491.209 274.22L491.805 274.816L484.472 282.15L483.765 282.857L491.805 290.897L491.209 291.493L483.169 283.453L482.462 284.16L475.128 291.493L474.532 290.897L482.572 282.857L474.531 274.816L475.128 274.219L483.169 282.26Z" fill="white" stroke="white" stroke-width="2"/>
<rect x="537" y="267" width="32" height="32" transform="rotate(90 537 267)" stroke="white" stroke-width="2"/>
<rect x="575" y="267" width="32" height="32" transform="rotate(90 575 267)" stroke="white" stroke-width="2"/>
<rect x="613" y="267" width="32" height="32" transform="rotate(90 613 267)" fill="#00E73A" stroke="white" stroke-width="2"/>
<rect x="651" y="267" width="32" height="32" transform="rotate(90 651 267)" stroke="white" stroke-width="2"/>
<rect x="386" y="305" width="32" height="33" transform="rotate(90 386 305)" stroke="white" stroke-width="2"/>
<rect x="424" y="305" width="32" height="33" transform="rotate(90 424 305)" stroke="white" stroke-width="2"/>
<rect x="461" y="305" width="32" height="32" transform="rotate(90 461 305)" fill="#00E73A" stroke="white" stroke-width="2"/>
<rect x="499" y="305" width="32" height="32" transform="rotate(90 499 305)" stroke="white" stroke-width="2"/>
<rect x="537" y="305" width="32" height="32" transform="rotate(90 537 305)" stroke="white" stroke-width="2"/>
<rect x="575" y="305" width="32" height="32" transform="rotate(90 575 305)" fill="#00E73A" stroke="white" stroke-width="2"/>
<rect x="613" y="305" width="32" height="32" transform="rotate(90 613 305)" stroke="white" stroke-width="2"/>
<rect x="651" y="305" width="32" height="32" transform="rotate(90 651 305)" stroke="white" stroke-width="2"/>
<rect x="353.227" y="342.436" width="32.4585" height="32.4585" fill="#AEAEB2" stroke="white" stroke-width="2"/>
<path d="M369.456 358.069L377.496 350.029L378.092 350.625L370.759 357.959L370.052 358.666L378.092 366.706L377.496 367.302L369.456 359.261L368.749 359.969L361.415 367.302L360.819 366.706L368.859 358.666L360.818 350.625L361.415 350.028L369.456 358.069Z" fill="white" stroke="white" stroke-width="2"/>
<rect x="391.131" y="342.436" width="32.4585" height="32.4585" fill="#AEAEB2" stroke="white" stroke-width="2"/>
<path d="M407.36 358.069L415.4 350.029L415.996 350.625L408.663 357.959L407.956 358.666L415.996 366.706L415.4 367.302L407.36 359.261L406.653 359.969L399.319 367.302L398.724 366.706L406.764 358.666L398.723 350.625L399.319 350.028L407.36 358.069Z" fill="white" stroke="white" stroke-width="2"/>
<rect x="461" y="342" width="33" height="32" transform="rotate(90 461 342)" stroke="white" stroke-width="2"/>
<rect x="499" y="342" width="33" height="32" transform="rotate(90 499 342)" fill="#00E73A" stroke="white" stroke-width="2"/>
<rect x="537" y="342" width="33" height="32" transform="rotate(90 537 342)" fill="#00E73A" stroke="white" stroke-width="2"/>
<rect x="575" y="342" width="33" height="32" transform="rotate(90 575 342)" stroke="white" stroke-width="2"/>
<rect x="613" y="342" width="33" height="32" transform="rotate(90 613 342)" stroke="white" stroke-width="2"/>
<rect x="651" y="342" width="33" height="32" transform="rotate(90 651 342)" stroke="white" stroke-width="2"/>
<rect x="386" y="380" width="33" height="33" transform="rotate(90 386 380)" stroke="white" stroke-width="2"/>
<rect x="424" y="380" width="33" height="33" transform="rotate(90 424 380)" stroke="white" stroke-width="2"/>
<rect x="461" y="380" width="33" height="32" transform="rotate(90 461 380)" stroke="white" stroke-width="2"/>
<rect x="499" y="380" width="33" height="32" transform="rotate(90 499 380)" stroke="white" stroke-width="2"/>
<rect x="537" y="380" width="33" height="32" transform="rotate(90 537 380)" stroke="white" stroke-width="2"/>
<rect x="542.749" y="380.34" width="32.4585" height="32.4585" fill="#AEAEB2" stroke="white" stroke-width="2"/>
<path d="M558.978 395.973L567.018 387.933L567.614 388.529L560.281 395.863L559.574 396.57L567.614 404.61L567.018 405.206L558.978 397.166L558.271 397.873L550.937 405.206L550.341 404.61L558.381 396.57L550.34 388.529L550.937 387.932L558.978 395.973Z" fill="white" stroke="white" stroke-width="2"/>
<rect x="580.653" y="380.34" width="32.4585" height="32.4585" fill="#AEAEB2" stroke="white" stroke-width="2"/>
<path d="M596.882 395.973L604.922 387.933L605.518 388.529L598.185 395.863L597.478 396.57L605.518 404.61L604.922 405.206L596.882 397.166L596.175 397.873L588.841 405.206L588.246 404.61L596.286 396.57L588.245 388.529L588.841 387.932L596.882 395.973Z" fill="white" stroke="white" stroke-width="2"/>
<rect x="618.557" y="380.34" width="32.4585" height="32.4585" fill="#AEAEB2" stroke="white" stroke-width="2"/>
<path d="M634.787 395.973L642.827 387.933L643.422 388.529L636.089 395.863L635.382 396.57L643.422 404.61L642.827 405.206L634.787 397.166L634.08 397.873L626.746 405.206L626.15 404.61L634.19 396.57L626.149 388.529L626.746 387.932L634.787 395.973Z" fill="white" stroke="white" stroke-width="2"/>
<rect x="386" y="418" width="33" height="33" transform="rotate(90 386 418)" stroke="white" stroke-width="2"/>
<rect x="424" y="418" width="33" height="33" transform="rotate(90 424 418)" stroke="white" stroke-width="2"/>
<rect x="461" y="418" width="33" height="32" transform="rotate(90 461 418)" stroke="white" stroke-width="2"/>
<rect x="499" y="418" width="33" height="32" transform="rotate(90 499 418)" stroke="white" stroke-width="2"/>
<rect x="537" y="418" width="33" height="32" transform="rotate(90 537 418)" stroke="white" stroke-width="2"/>
<rect x="575" y="418" width="33" height="32" transform="rotate(90 575 418)" stroke="white" stroke-width="2"/>
<rect x="613" y="418" width="33" height="32" transform="rotate(90 613 418)" stroke="white" stroke-width="2"/>
<rect x="651" y="418" width="33" height="32" transform="rotate(90 651 418)" stroke="white" stroke-width="2"/>
<rect x="153.367" y="1.29688" width="32.4585" height="32.4585" fill="#AEAEB2" stroke="white" stroke-width="2"/>
<path d="M169.597 16.9298L177.637 8.88977L178.232 9.48547L170.899 16.8195L170.192 17.5265L178.232 25.5665L177.637 26.1622L169.597 18.1222L168.89 18.8292L161.556 26.1622L160.96 25.5665L169 17.5265L160.959 9.48547L161.556 8.88879L169.597 16.9298Z" fill="white" stroke="white" stroke-width="2"/>
<rect x="224" y="1" width="33" height="33" transform="rotate(90 224 1)" fill="#00E73A" stroke="white" stroke-width="2"/>
<rect x="262" y="1" width="33" height="33" transform="rotate(90 262 1)" fill="#00E73A" stroke="white" stroke-width="2"/>
<rect x="300" y="1" width="33" height="33" transform="rotate(90 300 1)" stroke="white" stroke-width="2"/>
<rect x="110" y="39" width="33" height="32" transform="rotate(90 110 39)" stroke="white" stroke-width="2"/>
<rect x="148" y="39" width="33" height="33" transform="rotate(90 148 39)" stroke="white" stroke-width="2"/>
<rect x="186" y="39" width="33" height="33" transform="rotate(90 186 39)" fill="#00E73A" stroke="white" stroke-width="2"/>
<rect x="224" y="39" width="33" height="33" transform="rotate(90 224 39)" stroke="white" stroke-width="2"/>
<rect x="262" y="39" width="33" height="33" transform="rotate(90 262 39)" fill="#00E73A" stroke="white" stroke-width="2"/>
<rect x="300" y="39" width="33" height="33" transform="rotate(90 300 39)" stroke="white" stroke-width="2"/>
<rect x="34" y="77" width="33" height="32" transform="rotate(90 34 77)" stroke="white" stroke-width="2"/>
<rect x="72" y="77" width="33" height="32" transform="rotate(90 72 77)" stroke="white" stroke-width="2"/>
<rect x="110" y="77" width="33" height="32" transform="rotate(90 110 77)" stroke="white" stroke-width="2"/>
<rect x="148" y="77" width="33" height="33" transform="rotate(90 148 77)" stroke="white" stroke-width="2"/>
<rect x="186" y="77" width="33" height="33" transform="rotate(90 186 77)" stroke="white" stroke-width="2"/>
<rect x="224" y="77" width="33" height="33" transform="rotate(90 224 77)" stroke="white" stroke-width="2"/>
<rect x="262" y="77" width="33" height="33" transform="rotate(90 262 77)" fill="#00E73A" stroke="white" stroke-width="2"/>
<rect x="300" y="77" width="33" height="33" transform="rotate(90 300 77)" stroke="white" stroke-width="2"/>
<rect x="34" y="115" width="32" height="32" transform="rotate(90 34 115)" stroke="white" stroke-width="2"/>
<rect x="72" y="115" width="32" height="32" transform="rotate(90 72 115)" stroke="white" stroke-width="2"/>
<rect x="110" y="115" width="32" height="32" transform="rotate(90 110 115)" stroke="white" stroke-width="2"/>
<rect x="115.463" y="115.01" width="32.4585" height="32.4585" fill="#AEAEB2" stroke="white" stroke-width="2"/>
<path d="M131.692 130.643L139.732 122.603L140.328 123.198L132.995 130.532L132.288 131.24L140.328 139.28L139.732 139.875L131.692 131.835L130.985 132.542L123.651 139.875L123.056 139.28L131.096 131.24L123.055 123.198L123.651 122.602L131.692 130.643Z" fill="white" stroke="white" stroke-width="2"/>
<rect x="153.367" y="115.01" width="32.4585" height="32.4585" fill="#AEAEB2" stroke="white" stroke-width="2"/>
<path d="M169.597 130.643L177.637 122.603L178.232 123.198L170.899 130.532L170.192 131.24L178.232 139.28L177.637 139.875L169.597 131.835L168.89 132.542L161.556 139.875L160.96 139.28L169 131.24L160.959 123.198L161.556 122.602L169.597 130.643Z" fill="white" stroke="white" stroke-width="2"/>
<rect x="224" y="115" width="32" height="33" transform="rotate(90 224 115)" stroke="white" stroke-width="2"/>
<rect x="262" y="115" width="32" height="33" transform="rotate(90 262 115)" fill="#00E73A" stroke="white" stroke-width="2"/>
<rect x="300" y="115" width="32" height="33" transform="rotate(90 300 115)" stroke="white" stroke-width="2"/>
<rect x="34" y="153" width="32" height="32" transform="rotate(90 34 153)" stroke="white" stroke-width="2"/>
<rect x="72" y="153" width="32" height="32" transform="rotate(90 72 153)" stroke="white" stroke-width="2"/>
<rect x="110" y="153" width="32" height="32" transform="rotate(90 110 153)" stroke="white" stroke-width="2"/>
<rect x="148" y="153" width="32" height="33" transform="rotate(90 148 153)" stroke="white" stroke-width="2"/>
<rect x="186" y="153" width="32" height="33" transform="rotate(90 186 153)" stroke="white" stroke-width="2"/>
<rect x="224" y="153" width="32" height="33" transform="rotate(90 224 153)" stroke="white" stroke-width="2"/>
<rect x="262" y="153" width="32" height="33" transform="rotate(90 262 153)" fill="#00E73A" stroke="white" stroke-width="2"/>
<rect x="300" y="153" width="32" height="33" transform="rotate(90 300 153)" stroke="white" stroke-width="2"/>
<rect x="34" y="191" width="32" height="32" transform="rotate(90 34 191)" stroke="white" stroke-width="2"/>
<rect x="72" y="191" width="32" height="32" transform="rotate(90 72 191)" stroke="white" stroke-width="2"/>
<rect x="110" y="191" width="32" height="32" transform="rotate(90 110 191)" stroke="white" stroke-width="2"/>
<rect x="148" y="191" width="32" height="33" transform="rotate(90 148 191)" stroke="white" stroke-width="2"/>
<rect x="186" y="191" width="32" height="33" transform="rotate(90 186 191)" stroke="white" stroke-width="2"/>
<rect x="224" y="191" width="32" height="33" transform="rotate(90 224 191)" stroke="white" stroke-width="2"/>
<rect x="262" y="191" width="32" height="33" transform="rotate(90 262 191)" fill="#00E73A" stroke="white" stroke-width="2"/>
<rect x="300" y="191" width="32" height="33" transform="rotate(90 300 191)" stroke="white" stroke-width="2"/>
<rect x="1.75" y="228.723" width="32.4585" height="32.4585" fill="#AEAEB2" stroke="white" stroke-width="2"/>
<path d="M17.9795 244.356L26.0195 236.316L26.6152 236.912L19.2822 244.246L18.5752 244.953L26.6152 252.993L26.0195 253.588L17.9795 245.548L17.2725 246.255L9.93848 253.588L9.34277 252.993L17.3828 244.953L9.3418 236.912L9.93848 236.315L17.9795 244.356Z" fill="white" stroke="white" stroke-width="2"/>
<rect x="39.6543" y="228.723" width="32.4585" height="32.4585" fill="#AEAEB2" stroke="white" stroke-width="2"/>
<path d="M55.8838 244.356L63.9238 236.316L64.5195 236.912L57.1865 244.246L56.4795 244.953L64.5195 252.993L63.9238 253.588L55.8838 245.548L55.1768 246.255L47.8428 253.588L47.2471 252.993L55.2871 244.953L47.2461 236.912L47.8428 236.315L55.8838 244.356Z" fill="white" stroke="white" stroke-width="2"/>
<rect x="77.5586" y="228.723" width="32.4585" height="32.4585" fill="#AEAEB2" stroke="white" stroke-width="2"/>
<path d="M93.7881 244.356L101.828 236.316L102.424 236.912L95.0908 244.246L94.3838 244.953L102.424 252.993L101.828 253.588L93.7881 245.548L93.0811 246.255L85.7471 253.588L85.1514 252.993L93.1914 244.953L85.1504 236.912L85.7471 236.315L93.7881 244.356Z" fill="white" stroke="white" stroke-width="2"/>
<rect x="115.463" y="228.723" width="32.4585" height="32.4585" fill="#AEAEB2" stroke="white" stroke-width="2"/>
<path d="M131.692 244.356L139.732 236.316L140.328 236.912L132.995 244.246L132.288 244.953L140.328 252.993L139.732 253.588L131.692 245.548L130.985 246.255L123.651 253.588L123.056 252.993L131.096 244.953L123.055 236.912L123.651 236.315L131.692 244.356Z" fill="white" stroke="white" stroke-width="2"/>
<rect x="186" y="229" width="32" height="33" transform="rotate(90 186 229)" stroke="white" stroke-width="2"/>
<rect x="224" y="229" width="32" height="33" transform="rotate(90 224 229)" stroke="white" stroke-width="2"/>
<rect x="262" y="229" width="32" height="33" transform="rotate(90 262 229)" fill="#00E73A" stroke="white" stroke-width="2"/>
<rect x="300" y="229" width="32" height="33" transform="rotate(90 300 229)" stroke="white" stroke-width="2"/>
<rect x="34" y="267" width="32" height="32" transform="rotate(90 34 267)" stroke="white" stroke-width="2"/>
<rect x="72" y="267" width="32" height="32" transform="rotate(90 72 267)" stroke="white" stroke-width="2"/>
<rect x="110" y="267" width="32" height="32" transform="rotate(90 110 267)" stroke="white" stroke-width="2"/>
<rect x="148" y="267" width="32" height="33" transform="rotate(90 148 267)" stroke="white" stroke-width="2"/>
<rect x="186" y="267" width="32" height="33" transform="rotate(90 186 267)" stroke="white" stroke-width="2"/>
<rect x="224" y="267" width="32" height="33" transform="rotate(90 224 267)" stroke="white" stroke-width="2"/>
<rect x="262" y="267" width="32" height="33" transform="rotate(90 262 267)" fill="#00E73A" stroke="white" stroke-width="2"/>
<rect x="300" y="267" width="32" height="33" transform="rotate(90 300 267)" stroke="white" stroke-width="2"/>
<rect x="34" y="305" width="32" height="32" transform="rotate(90 34 305)" stroke="white" stroke-width="2"/>
<rect x="72" y="305" width="32" height="32" transform="rotate(90 72 305)" stroke="white" stroke-width="2"/>
<rect x="110" y="305" width="32" height="32" transform="rotate(90 110 305)" stroke="white" stroke-width="2"/>
<rect x="148" y="305" width="32" height="33" transform="rotate(90 148 305)" stroke="white" stroke-width="2"/>
<rect x="186" y="305" width="32" height="33" transform="rotate(90 186 305)" stroke="white" stroke-width="2"/>
<rect x="224" y="305" width="32" height="33" transform="rotate(90 224 305)" stroke="white" stroke-width="2"/>
<rect x="262" y="305" width="32" height="33" transform="rotate(90 262 305)" fill="#00E73A" stroke="white" stroke-width="2"/>
<rect x="300" y="305" width="32" height="33" transform="rotate(90 300 305)" stroke="white" stroke-width="2"/>
<rect x="34" y="342" width="33" height="32" transform="rotate(90 34 342)" stroke="white" stroke-width="2"/>
<rect x="72" y="342" width="33" height="32" transform="rotate(90 72 342)" stroke="white" stroke-width="2"/>
<rect x="110" y="342" width="33" height="32" transform="rotate(90 110 342)" stroke="white" stroke-width="2"/>
<rect x="148" y="342" width="33" height="33" transform="rotate(90 148 342)" stroke="white" stroke-width="2"/>
<rect x="186" y="342" width="33" height="33" transform="rotate(90 186 342)" fill="#00E73A" stroke="white" stroke-width="2"/>
<rect x="224" y="342" width="33" height="33" transform="rotate(90 224 342)" fill="#00E73A" stroke="white" stroke-width="2"/>
<rect x="262" y="342" width="33" height="33" transform="rotate(90 262 342)" fill="#00E73A" stroke="white" stroke-width="2"/>
<rect x="300" y="342" width="33" height="33" transform="rotate(90 300 342)" fill="#00E73A" stroke="white" stroke-width="2"/>
<rect x="110" y="380" width="33" height="32" transform="rotate(90 110 380)" stroke="white" stroke-width="2"/>
<rect x="148" y="380" width="33" height="33" transform="rotate(90 148 380)" stroke="white" stroke-width="2"/>
<rect x="186" y="380" width="33" height="33" transform="rotate(90 186 380)" stroke="white" stroke-width="2"/>
<rect x="224" y="380" width="33" height="33" transform="rotate(90 224 380)" stroke="white" stroke-width="2"/>
<rect x="262" y="380" width="33" height="33" transform="rotate(90 262 380)" stroke="white" stroke-width="2"/>
<rect x="267.081" y="380.34" width="32.4585" height="32.4585" fill="#AEAEB2" stroke="white" stroke-width="2"/>
<path d="M283.31 395.973L291.35 387.933L291.946 388.529L284.613 395.863L283.906 396.57L291.946 404.61L291.35 405.206L283.31 397.166L282.603 397.873L275.269 405.206L274.673 404.61L282.713 396.57L274.672 388.529L275.269 387.932L283.31 395.973Z" fill="white" stroke="white" stroke-width="2"/>
<rect x="77.5586" y="418.245" width="32.4585" height="32.4585" fill="#AEAEB2" stroke="white" stroke-width="2"/>
<path d="M93.7881 433.877L101.828 425.837L102.424 426.433L95.0908 433.767L94.3838 434.474L102.424 442.514L101.828 443.11L93.7881 435.07L93.0811 435.777L85.7471 443.11L85.1514 442.514L93.1914 434.474L85.1504 426.433L85.7471 425.836L93.7881 433.877Z" fill="white" stroke="white" stroke-width="2"/>
<rect x="148" y="418" width="33" height="33" transform="rotate(90 148 418)" stroke="white" stroke-width="2"/>
<rect x="186" y="418" width="33" height="33" transform="rotate(90 186 418)" stroke="white" stroke-width="2"/>
<rect x="224" y="418" width="33" height="33" transform="rotate(90 224 418)" stroke="white" stroke-width="2"/>
<rect x="262" y="418" width="33" height="33" transform="rotate(90 262 418)" stroke="white" stroke-width="2"/>
<rect x="300" y="418" width="33" height="33" transform="rotate(90 300 418)" stroke="white" stroke-width="2"/>
</svg>
